<?xml version="1.0" encoding="UTF-8"?>
<svg id="Layer_1" xmlns="http://www.w3.org/2000/svg" version="1.1" xmlns:xlink="http://www.w3.org/1999/xlink" viewBox="0 0 72 72">
  <!-- Generator: Adobe Illustrator 30.0.0, SVG Export Plug-In . SVG Version: 2.1.1 Build 123)  -->
  <defs>
    <style>
      .st0, .st1, .st2, .st3, .st4, .st5 {
        fill: #fff;
      }

      .st6 {
        fill: none;
      }

      .st1 {
        opacity: .95;
      }

      .st2 {
        opacity: .95;
      }

      .st3 {
        opacity: .96;
      }

      .st7 {
        fill: #1bc1fc;
        opacity: .02;
      }

      .st4 {
        opacity: .96;
      }

      .st8 {
        clip-path: url(#clippath);
      }

      .st5 {
        opacity: .88;
      }
    </style>
    <clipPath id="clippath">
      <rect class="st6" width="72" height="72"/>
    </clipPath>
  </defs>
  <g class="st8">
    <path class="st0" d="M40.07,35.89c-2.32,1-4.65,1.99-6.99,2.96-.61.25-3.04,1.19-3.38,1.41.39,1.91,2.33,5.58,2.64,7.64.04.27-.22.69-.37.93l-.53.62c.47-.06,1.11-.02,1.5-.2.03-.01.22-.52.24-.6.71-2.73,3.7-1.7,5.66-2.35.29-.1,1.83-1.87,2.11-2.21.29-.34.55-1.03.45-1.47-.07-.47-.5-1.29-.76-1.72-1.02-1.7-.58-3.17-.42-5-.1-.02-.07-.03-.16-.01ZM20.08,49.37c.47,0,1.85.08,2.01-.26.98-2.12,2.41-1.88,4.83-2.24-.15-.5-.36-1.15-.55-1.62-.54-1.36-2.43-4.52-3.86-5.04-.57.38-.91.78-1.4,1.21-.78.67-1.27,1.08-1.89,1.92-.59.81-.95,1.62-1.41,2.5-.45.86-.9,1.64-1.46,2.43-.28.4-.49.77-.83,1.13,1.48-.06,3.07-.03,4.56-.03ZM12.19,11.59c-.31.08-.59.26-.75.53l.02.11c.3.12.52,0,.85-.1l1.12-.24c-.5-.21-.7-.33-1.24-.3ZM42.87,49.38c2.73-.02,5.46-.02,8.19-.01.57,0,4.05.08,4.39-.12.19-.23.07-.44.18-.71.36-.93.62-1.2,1.55-1.62,1.4-.64,2.83-.66,4.32-.82.14-.04.36-.15.38-.31.13-1.18.19-3.02-.26-4.13-.21-.52-3.34-.25-3.9-.27-4.32-.18-8.29-1.91-12.01-3.98-.63-.35-2.39-1.68-2.93-1.79l.03.06c1.19,2.6,6.88,4.15,5.68,7.1-.7,1.73-3.3,3.7-4.55,5.16-.41.47-.7,1.05-1.08,1.45ZM43.28,5.12c1.36-.14,2.34.05,3.61.58.19.08.24.21.28.37-.02.18-.09.31-.2.44-1.41,1.78-3.26,2.58-5.5,2.77-.99.08-2,.08-2.98.2-.69.09-1.14.76-1.51,1.27-.58.81-1.01,2.22-.85,3.2.11.65.49,1.16,1.02,1.53,3.26,2.28,12.07-.07,15.86-.73,3.18-.55,5.87-.5,8.58,1.41,1.36.96,2.36,2.38,2.64,4.03.1.58.08,1.17.04,1.76-.19,2.68-1.48,4.96-3.34,6.86-.42.43-1.79,1.6-2.03,1.99-.12.19.16.67.27.85.65,1.07,1.36,2.13,1.66,3.36.1.39.1.8.19,1.19.04.2.11.43.27.56.69.54,3.22.89,4.37,1.65.43,1.21.4,2.55.57,3.82.17,1.23.31,2.47.44,3.7.11,1.04.48,2.09.23,3.12-.1.42-.2.99-.51,1.31-.59.24-6.52.14-7.48.13l-14.4-.04c-12.6.1-25.2.11-37.79.03-.97-.01-2.06.14-1.7-1.13.81-2.86,4.11-2.24,6.31-2.79,1.06-1.07,1.94-2.51,2.66-3.82.36-.65.78-2.77,1.63-2.81,1.43-.05,2.92.07,4.35-.17.4-.07.82-.33,1.16-.54-2.11-.03-5.14-.45-6.78-1.87-3.72-3.23-1.48-9.69,1.24-12.83.38-.43,2.2-2.35,2.67-2.39.15.28-.16,1.86-.23,2.27.24-.27.56-.63.76-.91,1.36-1.93,2.84-3.82,4.06-5.85.51-.85.3-2.26.07-3.19-1.36,2.61-3.61,5.03-5.71,7.06-.64.62-3.47,4.47-3.92,4.69-1.38-.73,2.03-4.96,2.64-5.68,1.34-1.58,1.67-2.43.94-4.46-.35,2.43-1.07,4.25-3.44,5.38-.77.37-2.26.95-3.11.74-.33-.08-.98-1.62-1.15-1.99.19.07.43.17.62.23,1.26.37,2.58-.65,3.26-1.64-.03-.07-.07-.13-.1-.2-.52-.95-1.42-1.28-2.39-1.57-.59-.03-1.15-.06-1.73-.06,0,.04.01.08.02.12.05.4.22,1.38-.01,1.66-.69-.12-.69-1.33-2.33-1.6,0-.94.06-1.32-.43-2.15.27-1.9,1.27-1.86,2.75-2.58,1.05-.51,2.01-1.32,3.05-1.82.85-.34,1.76-.92,2.62-1.17,1.98-.58-.29-2.37,1.81-2.65,4.61-.62,8.9,1.38,10.63,5.85,1.66,4.3-2.12,7.34-4.9,9.95-1.38,1.29-2.69,2.65-3.92,4.08-1.61,1.89-1.79,1.85-2.13,4.41.36-.4.66-.84.93-1.3,2.46-4.28,7.21-6.34,10.11-10.24.7-.94,1.5-1.99,1.71-3.18.22-1.3-.13-2.77-.85-3.86-.52-.77-1.15-1.45-1.66-2.21,3.9.81,5.14,4.03,4.86,7.66-.22,2.88-1.32,5.07-3.59,6.9-1.01.82-2.15,1.59-3.11,2.42,2.07-.5,4.46-2.02,5.75-3.75,2.04-2.74,2.06-4.15,1.58-7.34,2.01.98,2.59,3.19,2.25,5.21-.89,5.26-7.01,7.33-11.43,8.63-3.51,1.03-4.47,2.14-4.96,5.65.92-.61,1.88-1.47,2.81-2.01,8.89-5.16,19.06-8.81,29.38-9.4,1.62-.09,3.25-.14,4.86.09,1.35.2,2.51.72,3.7-.34.93-.81,1.6-1.87,1.31-3.15-.79-3.39-5.36-2.5-7.83-2.2-2.17.27-4.34.5-6.52.71-1.26.11-2.79.28-4.04.18-2.31-.18-6.58-.93-7.07-3.74-.31-1.79.98-4.38,1.96-5.82.92-1.29,2.26-2.69,3.63-3.5.8-.47,2.71-1.21,3.56-1.36Z"/>
    <path class="st0" d="M19.21,52.26c.41.21.58.68,1.01.88.33.15.64.07.99.11,1.4.16,3.25-.49,2.48,1.67-1.34,3.75-2.62,7.55-4.1,11.25-.3.74-1.47.41-2,.23-.27-.45-.45-1.34-.58-1.87l-.75-3.11c-.18-.76-.33-1.52-.63-2.24-.68,1.81-1.04,3.87-1.63,5.73-.38,1.19-.92,2.05-2.33,1.62-.28-.09-.35-.46-.45-.69-.61-2.38-.93-4.83-1.93-7.1-.46-1.04-1.37-2.88-2.43-3.44-.22-.11-.98-.05-1.36-.2-.33-.39.27-.88.55-1.2.78-.6,1.13-.95,2.08-1.15,2.45,1.37,4.52,7.01,4.93,9.72.28-.7,1.6-4.49,1.53-5.05-.08-.61-1.03-1.72-1.51-2.1-.55-.12-1.46.06-1.67-.39,0-.27.19-.5.37-.69.74-.78,1.44-1.35,2.53-1.5.89.45,2.02,1.84,2.43,2.74.99,2.19,1.77,4.68,2.52,6.95.25-.67.61-1.88.83-2.61.32-1.04,1.17-3.2,1.26-4.15-.34-.57-2.58-.06-3.27-.43-.33-.45.66-2.58,1.13-2.97Z"/>
    <path class="st0" d="M51.35,65.74c.66-.28,1.11-.65,1.37-1.35.65-1.7-.31-4.49-2.03-5.2-.49-.2-1.07-.18-1.57-.13-3.22,1.09-1.33,7.65,2.24,6.68ZM49.8,57.87c4.3-.44,7.04,3.83,4.4,7.41-.85,1.15-2.33,1.47-3.67,1.59-1.26.16-2.78-.35-3.75-1.13-1.8-1.45-2.17-4.42-.67-6.22.86-1.03,2.38-1.54,3.69-1.65Z"/>
    <path class="st2" d="M50.17,60.68c.36.16.31,1.09.08,1.39-.47-.35-.28-.92-.08-1.39Z"/>
    <path class="st4" d="M50.56,62.15c.31-.02,1.03-.06,1.25.14l-.05.1c-.33.07-.77.2-1.08.1-.14-.17-.1-.08-.12-.34Z"/>
    <path class="st1" d="M50.27,62.57c.15.31.21.99-.05,1.26l-.09-.03c-.13-.24-.13-.86-.09-1.11l.23-.12Z"/>
    <path class="st3" d="M49.56,62.25c.2-.05.26-.08.48-.05-.06.19-.07.21-.21.34-.3,0-.55-.01-.85-.03v-.07c.18-.13.37-.14.58-.18Z"/>
    <path class="st5" d="M48.98,62.5c-.07,0-.19-.04-.25-.06l-.05-.09.09-.08c.32-.11.45-.07.8-.02-.22.04-.4.05-.57.18v.07Z"/>
    <path class="st7" d="M50.04,62.2c.07.14.14.25.24.37l-.23.12c-.13.02-.14.03-.27-.01l.05-.15c.14-.13.16-.15.21-.34Z"/>
    <path class="st0" d="M59.37,57.49c.33-.04.4-.07.66.08.22.34.06.87-.01,1.29,1.05-.66,3.75-1.44,4.75-.56,1.36,1.19.7,4.86.96,6.53.09.6.94.8,1.01,1.34-.28.6-1.83.38-2.42.4-.45.02-1.51-.02-1.82-.35-.07-.5.8-.96.88-1.26.2-.8.09-2.17.1-3,0-.88.06-1.79-.53-2.42-3.3-2.02-3.19,3.86-2.76,5.67.05.21.92.34,1.13.77,0,.23.03.14-.09.36-.5.38-2.05.23-2.69.24-.44,0-2.05.07-2.06-.52.22-.44.8-.67,1.23-.89.19-.88.1-4.94.03-5.95-.38-.22-1.41-.41-1.34-.94.35-.45,2.3-.66,2.97-.78Z"/>
    <path class="st0" d="M25.79,62.63c.45-.22.94-.46,1.4-.66.58-.29,1.87-.8,2.01-1.41.27-1.11-1.06-1.6-1.89-1.56-1.71.44-1.51,2.23-1.52,3.63ZM27.21,57.93c1.37-.11,2.51.04,3.55,1.04.38.36.66.97.62,1.5-.16,2.12-3.44,1.7-4.68,2.84-.48.44-.38,1.18.05,1.6,1.56,1.5,2.92,0,4.59-.18.01,0,.03,0,.04,0,0,.16-.06.38-.13.52-.99,1.8-3.91,2.01-5.55,1.12-.96-.53-1.71-1.42-1.98-2.45-.79-3.02.58-5.11,3.48-5.96Z"/>
    <path class="st0" d="M36.68,51.43l.25.02c.36.28-.27,1.07-.4,1.47-.37,1.18-.28,2.34-.29,3.57v4.05c0,.95-.06,3.89.08,4.67.49.26,1.23.26,1.44.74-.05.65-1.38.62-1.87.62-.79,0-1.68.04-2.46-.08-.26,0-.77-.08-.9-.32.13-.56,1.22-.74,1.48-1.39.09-.22.05-10.27-.08-10.63-.31-.3-.83-.09-1.03-.53.07-.66,3.14-2.07,3.78-2.19Z"/>
    <path class="st0" d="M42.01,57.49c.15-.02.36-.04.5.04.68.4-.13,6.32.19,7.47.12.44.79.5,1.12.72.15.1.17.18.21.35-.2.71-3.51.46-4.28.42-.32.01-.55.04-.81-.16-.22-.52.79-.86,1.15-1,.16-.24.36-.49.36-.8.02-1.5-.02-3.02,0-4.52.01-1.29-.7-.84-1.26-1.48-.18-.67,2.28-.92,2.83-1.03Z"/>
    <path class="st0" d="M42.2,52.94c1.33.12,1.73,1.15,1.04,2.26-.37.19-.49.26-.91.36-1.02-.19-1.9-.79-1.24-2.04.2-.38.7-.51,1.11-.58Z"/>
  </g>
</svg>